<?xml version="1.0" encoding="UTF-8"?>
<svg width="232.54px" height="368.03px" enable-background="new 0 0 232.54 368.029" version="1.1" viewBox="0 0 232.54 368.029" xml:space="preserve" xmlns="http://www.w3.org/2000/svg"><g fill="#fff" stroke="#000"><path d="m146.69 22.869c-5.356 6.846 0.743 15.919-6.101 22.688-0.82 1.564-0.82 1.564-1.49 3.051v3.869h-0.742c0 2.305 5.281 12.871-0.817 13.615 0 6.843-24.399 14.653 24.325 69.996 14.434 17.41 15.919 40.171 19.714 62.116 2.306 4.539 13.687 12.2 12.197 16.738-0.742 0.744-0.742 0.744 0 1.488 12.126 11.38 6.026 29.68 0.743 42.549 1.488 3.794 6.027 6.842 10.639 7.586v0.743c-0.816 2.382 6.77 2.382 9.818 4.542 9.969 6.99 15.994 16.811 17.558 28.191-0.745 12.871-7.589 25.813-14.506 36.45v-1.414c-1.563 0-1.563 0-3.052 1.414-27.373 28.863-69.104 22.764-105.26 18.97-27.82-2.9-37.194 11.232-73.272 12.569-4.612-0.817-11.977-4.906-15.768-5.65-3.051-1.637-5.359-1.416-9.82-0.819 5.282-6.024-5.951-4.837-10.637-4.09 30.499-25.441 39.87-53.337 46.045-64.051 9.894-0.221 18.82-7.513 32.136-8.48-12.202-13.166-26.335-31.54-32.731-64.718-0.148-4.76 0.743-8.33 2.233-12.048-0.744-0.894-0.522-0.673-1.266 0.146 0.744-3.868 4.388-4.762 7.365-4.762 1.561-6.844-5.208-15.25-6.323-20.233-1.188-4.835-1.266-26.78-6.547-38.161-10.189-31.54 21.127-63.006 0.82-83.239-7.439-7.144-12.647-17.781-14.506-25.441-1.115-4.391 0.744-10.637-1.487-13.613-1.49-6.172-3.868-13.016 0.372-17.183 1.635-1.563 8.33-2.528 15.544 2.677 7.365 5.134 21.352 26.11 41.437 24.101 33.698 2.532 24.919-17.554 57.202-31.838 11.61-4.551 11.471 15.383 6.181 22.226v-1e-3z"/><path d="m114.04 34.997l12.124-16.294s12.57-11.827 16.291-12.125c8.034-0.816 6.023 1.486 6.023 5.135 0 3.718-6.023 17.182-6.023 17.182v12.201l-5.134 11.083-23.28-17.182z"/><path d="m62.264 38.493l-25.662-23.062s-8.705-3.42-9.522 4.836c-0.15 2.304 1.116 4.313 1.34 6.993 0.294 2.603-0.523 5.131-0.225 8.256 0.519 5.58 3.42 11.38 3.42 11.38s-2.676 0.597-1.786 0.821c2.904 1.115 5.061 4.612 5.061 4.612s-1.339 0.221-2.9 0.52c5.577 2.381 8.33 13.39 8.33 13.39l21.944-27.746z"/><path d="m59.809 24.658c-3.124-1.789 1.711 4.833 2.382 13.387-6.545-1.635-13.24 2.01-13.24 2.01s5.801-0.744 6.099 2.157c-5.506-0.744-13.835 2.679-13.835 2.679s6.173-1.862 7.737 1.263c-8.855 0.895-12.275 14.506-12.275 14.506s6.545-4.538 6.77-3.497c0.147 1.042-2.308 6.919-6.176 10.044 3.497 0 2.381 1.263 2.381 1.263s-0.222 9.746 0.298 14.804c0.372 5.062 4.911 13.464 4.911 13.464s-0.596 3.496-3.795 5.208c2.753 0.299 1.936 1.189 2.157 3.199-1.115 2.083-0.817 1.934-3.57 3.051 2.083 0.372 2.083 0.893 3.57 0.446-1.115 4.387-4.535 14.207-4.016 22.761 0.372 8.481 5.058 19.416 6.769 28.864 1.564 9.448 0.67 19.342 2.381 26.186 1.635 6.842 7.737 15.102 7.737 15.102l24.547 20.307s2.827 12.646 5.878 17.107c5.429 8.109 10.192 11.384 10.192 11.384l-2.083-5.357s7.511 1.19 16.365 15.473c4.759-10.339 36.747-56.906 36.747-56.906s5.728 44.559 21.871 24.623c24.621-29.383 24.249 31.319 24.249 31.319s6.023-13.243 6.023-27.527c0-12.198-4.537-10.188-7.811-15.618 4.465-5.134-7.811-11.159-9.521-17.184-2.974-10.34-4.388-30.426-10.935-45.898-4.39-10.785-8.403-14.952-12.942-23.505-4.611-8.479-5.432-17.41-12.199-26.928-3.721-5.135-7.813-8.187-7.813-8.187s4.909-1.114 3.723-2.006c-1.188-0.891-7.664-2.531-8.184-5.804s2.378-7.289 2.975-10.266c0.521-3.125 1.34-10.486 1.34-10.486l1.115 1.115s2.307-6.397-2.752-14.134c-1.189-1.785 2.453 0.594 2.453 0.594s-1.041-4.536-5.652-6.247c-1.639-0.523-2.01-3.943 3.645-4.837-3.866-4.167-13.094-3.717-12.943-4.833 0.521-3.275 6.918-5.805 6.918-5.805s-9.521-0.371-15.1 1.562c-1.784-0.147 3.57-3.047 3.57-3.047s-4.092-0.821-9.223 1.114c-0.299-2.603 3.121-8.26 3.643-7.96 0 0-4.835-0.299-8.479 3.795-1.116 0.521 0.596-2.901 0.596-2.901s1.336 4.24-17.035 4.464c-17.335 0-19.864 0.667-26.036-3.646 0.596 1.191-1.414-0.817 0.743 2.083-3.08 0.01-4.194-2.74-4.194-2.74h1e-3z"/><path d="m48.95 101.35h7.884l9 5.062 11.904 14.057s18.522 7.067 21.274 0.894c6.843-15.398 32.731-33.623 30.648-31.764-4.313 3.718-10.265 11.455-3.794 9.82 3.051-0.743 3.271 1.266 7.589 1.266-9.522-1.045-8.108 5.279-23.582 14.131-5.804 3.125-6.324 20.311-21.126 20.903-13.547 0.45-39.805-34.36-39.805-34.36h1e-3z"/><path d="m146.69 3.008c1.932 0.522 3.794 5.952 0.891 12.423 0-8.853-8.256-8.404-17.255 0.298 3.124-0.298 4.46-1.188 6.77 1.339-10.638 0-14.955 15.025-20.086 10.564-3.7-5.135 20.33-27.226 29.7-24.624h-0.01z"/><path d="m26.335 7.472c2.083-2.157 9.445 0.074 13.24 2.382 7.589 6.172 21.72 22.537 17.481 26.185-2.828 2.455-9.892-4.094-15.177-4.094 5.285-1.485-0.817-5.281-5.948-4.686-3.794 0.817 2.231-1.859 3.718-1.859 9.894 3.048-11.977-16.294-12.72-3.572-1.413-5.282-2.677-12.272-0.594-14.356z"/><path d="m137.54 99.118c-8.405 1.635-9.596 5.653-8.853 7.589 0.67 2.006 5.058 2.006 6.621 6.544 1.486 4.538 2.23 10.637 2.23 16.663-2.23-2.975-8.406-2.975-7.663 1.561 2.308 3.868 3.646 6.621 4.688 11.458 0.52 2.974 0.744 10.563-0.82 14.357-0.816-1.563-0.816-1.563-2.23-3.794 1.188 19.563-3.869 25.143-10.711 35.556 6.396-2.603 6.918-2.603 10.711-2.603-3.793 2.23-7.586 8.701-8.406 12.57 6.548-7.737 4.689-5.282 6.25-5.503-1.266 1.189-0.969 3.125-1.266 5.503 3.941-9.149 10.116-14.429 16.887-15.919-4.016 2.381-5.951 4.465-6.694 6.77-1.562 4.836-2.229 6.102-6.771 9.149-5.429 1.416-5.429 7.589-6.172 12.871-3.722-3.718-5.283-0.743-5.283 3.051-3.051-3.051-6.023-4.538-9.074-3.051-4.538 0.817-3.795 11.455-7.513 7.513-2.307 0-3.125 3.125-3.125 6.176-6.026-12.871-22.913-14.954-30.499-25.665-1.563-2.677-3.721-10.044-3.721 0.372-5.282-11.382-12.125-30.128-11.381-42.995-1.413-3.052-4.538 2.305-4.538 3.792 0.817-7.586-3.794-12.647-4.313-18.076-1.042-9.82-4.314-22.688 3.717-30.649-0.593 0.225-3.121-0.372-5.205 2.753 0.52-4.313 0.892-8.925 5.503-11.977 0-1.487-1.263-0.67-4.388-0.67 3.794-2.975 16.588 0.67 6.843 3.125 9.521 0.596 7.291 1.413 11.604 2.899 3.423 1.118 8.036 6.249 10.563 15.252-0.82 2.975 9.449 10.34 14.208 10.114 12.197-0.519 14.951-13.835 15.547-14.506 3.199-4.833 1.042-7.365 12.05-12.124 7.88-6.979 13.46-9.729 21.19-8.092z"/><path d="m57.504 201.48s-3.647 20.683-4.464 30.576c-0.892 9.967-0.148 21.72-0.968 31.466-0.817 9.82-3.57 19.117-5.429 27.524-1.859 8.329-12.274 24.101-8.852 26.184 3.423 2.157 29.456-13.018 29.456-13.018s5.953-34.367 7.292-41.435c1.34-6.992 2.304-19.268 2.9-25.591 0.671-6.471 3.199-15.993 3.199-15.993s-6.323-14.281-13.391-15.547c-2.455-0.519 1.043 3.051 1.043 3.051s-4.315-0.894-6.099-2.01c-1.786-1.2-4.687-5.21-4.687-5.21z"/><path d="m120.28 249.08c-1.115 11.38-2.528 26.335-5.429 34.219 8.333-1.712 22.464 2.602 22.464 2.602s4.909-16.588 7.144-29.457c2.23-12.794 10.858-25.44 6.1-47.757-1.268-5.134-3.498-10.416-6.1-11.16-11.904-3.346-17.26 8.109-17.26 8.109l-1.041 14.208-5.059-4.016c0.01 0.01 0.459 21.729-0.811 33.26z"/><path d="m144.91 266.04c1.34-4.24 10.339-27.301 10.339-27.301l2.455 5.132s0.743-11.455 3.422-15.992 6.546-9.15 14.806-10.041c12.496-1.119 16.438 14.804 16.438 14.804l-3.051-2.382s6.102 23.432-5.43 44.187c-2.305 4.463-4.09 11.23-18.002 14.282-7.365 1.562-20.977-5.652-20.977-5.652s-3.93-3.87 0.01-17.04h-0.01z"/><path d="m192.22 260.46c3.791 0.816 6.023 5.135 12.867 5.804-0.896 0.744-2.976 1.859-2.976 2.604 6.026 0.816 12.496 1.266 17.926 6.547 5.282 5.354 10.416 12.717 11.83 21.124 1.562 13.762-5.728 27.151-13.243 38.831 0-0.893 0.225-1.937-0.594-3.497-17.78 22.241-40.541 25.515-65.537 25.96-21.124-0.667-39.127-5.503-56.536-3.719 6.919-5.354-60.179-32.729-68.509-25.96 4.612-8.405 12.125-15.994 19.714-21.273 18.298-9.895 57.946-14.284 42.847-19.938 10.486-3.868 30.573-3.569 36.671-2.68 7.887 1.192 6.248 3.574 14.654 2.086-0.742-0.746-0.742-0.746-1.563-2.233 1.563-1.561 6.92 1.487 9.894 3.722 9.896 5.354 24.325 4.611 31.169-5.282 6.1-6.91 6.771-15.24 11.381-22.09z"/><path d="m70.745 313.65c-2.975 0-8.702 4.017-3.347 3.272 7.586 0 13.24 1.34 20.086 5.132 0.743-1.487 0.743-1.487-0.82-3.048 9.224 2.381 19.713 11.753 16.813 22.762-0.968 3.647-3.647 6.77-8.109 7.586 3.347 1.639 1.562 3.647 2.382 4.317-11.384 3.048-7.961-0.15-20.163 4.461-7.513 2.233-22.835 8.854-41.136 8.854-7.66-1.563-15.102-8.186-25.216-6.027 2.974-3.792 5.58-5.43 4.089-7.736-4.094 3.59-12.427 3.96-15.327 3.96 12.125-8.852 15.547-18.599 23.729-26.261 0 0 15.846-11.156 15.102-11.9 12.869-7.66 15.175-5.359 31.913-5.359h1e-3z"/><path d="m72.01 114.66s0-12.423-3.35-16.813c-3.419-4.313-14.432-1.487-22.39-12.644-0.743 1.933-0.967 8.701 6.1 13.836-2.455 0.964-3.125 2.156-3.125 2.156s7.44-0.225 11.087 2.826c-0.895 0-4.315 0.593-4.315 0.593s6.471 2.011 9.074 3.198c3.868 1.79 6.919 6.84 6.919 6.84z"/><path d="m88.521 128.06s-5.875-0.744-6.398 2.083c-0.221 0.817 1.34 2.901 6.622 2.604 4.464-0.226 7.662-1.786 7.589-2.604-0.522-2.83-7.813-2.08-7.813-2.08z"/><path d="m78.183 108.86c-0.372-1.191-3.125 3.494-4.612 6.77-1.115 2.378-0.224 6.842 0.522 9 2.231 5.804 8.926 4.539 14.43 4.464 5.282-0.074 10.192-0.298 12.871-2.381 3.791-2.681 3.048-8.926 2.007-11.308-1.189-2.382-5.206-8.853-5.651-7.438-0.596 2.23-1.789 7.961-1.789 7.961l-15.323 0.744c0 0.02-0.67-0.73-2.455-7.8z"/><path d="m81.307 115.48c5.282-1.561 8.554-1.34 14.135-0.221 1.042 1.708 1.042 3.792-0.895 8.554-0.743 2.23-5.8 2.975-5.8 2.975s1.414 2.605-0.596 2.382l0.372-2.382s-4.834-0.669-6.1-2.677c-1.712-2.739-2.827-8.17-1.116-8.62z"/><path d="m102.14 71.966s1.638-6.77 1.264-10.785c-0.372-3.944-1.86-10.265-1.86-10.265s2.53 1.486 4.02 4.313c1.562 2.676 4.759 6.323 4.759 6.323l1.936-7.737s1.786 8.778 0 12.722c-1.785 3.941-0.297 2.826-0.297 2.826s11.155 3.941 13.762 5.728c8.998 6.396 3.791 14.804 3.791 14.804s3.722-13.538-14.355-13.019c-5.36 0.147-13.02-4.91-13.02-4.91z"/><path d="m102.66 68.693l1.192 2.604s0.743-0.148 3.57-0.965c6.173-2.011 5.503 4.017 13.983 5.355 1.563 0.222-4.017 0.445-5.875 0.222-1.266 1.266-2.083 4.239-4.612 5.208-2.679 0.967-6.473 0.894-10.192-0.521-1.71 5.875 3.571 10.785 3.571 10.785l-5.43-3.422s-1.115-2.081-1.339-6.324c-0.075-2.007 2.603-4.164 3.419-6.173 0.82-2.083 1.72-6.77 1.72-6.77z"/><path d="m103.62 75.687c-4.017 3.57 0.297 4.91 3.721 5.429 5.653-0.224 5.948-4.24 6.471-6.024-1.488-0.521-0.299-1.042-2.308-1.414-0.66 7.958-6.84 6.843-7.88 2.01z"/><path d="m108.53 73.379c2.752-1.116 4.464 0.519 3.72 1.191-0.82 0.745-2.16-0.893-3.72-1.191z"/><path d="m92.688 117.05c-2.156-1.564-5.204-0.747-7.586-0.747-0.669 2.23 5.43 1.49 7.586 0.75z"/><path d="m83.243 120.32c5.279 2.68-6.102 3.052 5.801 5.802 0-3.122-0.521-6.25-0.521-8.628-2.306 0-5.578 0.298-7.141 0.298 0 2.53-0.819 1.19 1.861 2.53z"/><path d="m81.083 117.79s7.961 1.561 12.425-0.82l-12.425 0.82z"/><path d="m105.56 114.59s-0.521-10.637 2.9-14.955c3.272-4.24 9.744-5.576 21.052-9.817-4.761 3.869 3.35 2.083-3.719 7.288 2.455 0.968 2.604 1.119 2.604 1.119s-3.941 4.237-9.893 4.237c0.893 0 2.232 1.118 2.232 1.118s-5.805 5.131-9.449 4.906c-3.79 1.78-5.72 6.101-5.72 6.101z"/><path d="m72.604 69.883s-2.452-4.536-2.452-7.438c0-5.131 3.567-10.637 3.567-10.637s-4.611 5.281-5.728 7.291c-2.379 3.869-1.786 8.406-1.786 8.406s-3.124-2.233-4.611-5.579c-0.593-1.638-0.299-6.622-0.299-6.622s-2.304 10.192-2.827 12.794c-0.519 2.679 0.895 11.979 5.136 11.16 16.588-3.721 13.389 8.182 13.389 8.182l-1.115-9.968-3.274-7.589z"/><path d="m58.991 75.091s-6.471-2.157-9.297-2.157c-2.904 0-9.301 2.381-9.301 2.381l8.705 0.892s-3.942 1.266-5.208 2.527c-1.339 1.487-2.602 6.103-2.602 6.103l4.91-2.528v3.493s2.23-4.687 4.91-5.801c5.281-2.381 11.9 0.52 11.9 0.52l-1.414-4.686-2.603-0.744z"/><path d="m72.974 68.768l-1.412 2.679s-0.148-0.967-3.048-1.563c-5.433-1.115-5.878 4.612-14.506 5.951-1.563 0.15 4.016 0.521 5.877 0.15 1.264 1.264 2.082 4.314 4.761 5.281 2.601 0.965 6.396 0.817 10.117-0.521 1.709 5.95-3.647 10.787-3.647 10.787l5.581-3.495s1.042-2.083 1.263-6.323c0-1.937-2.603-4.093-3.42-6.103-0.822-2.158-1.566-6.843-1.566-6.843z"/><path d="m67.619 73.898c2.679-1.111 4.54 0.449 3.795 1.192-0.817 0.744-2.308-0.817-3.795-1.192z"/><path d="m71.859 75.834c4.019 3.497-0.372 4.91-3.791 5.432-5.581-0.224-5.953-4.167-6.474-6.175 1.563-0.446 0.297-0.968 2.307-1.339 0.745 8.034 6.844 6.919 7.958 2.082z"/></g></svg>
