<?xml version="1.0" encoding="UTF-8"?>
<!DOCTYPE svg  PUBLIC '-//W3C//DTD SVG 1.1//EN'  'http://www.w3.org/Graphics/SVG/1.1/DTD/svg11.dtd'>
<svg enable-background="new 0 0 1877 1526" version="1.1" viewBox="0 0 1877 1526" xml:space="preserve" xmlns="http://www.w3.org/2000/svg">
<path d="m1746.2 177.04c2.727-0.598 5.458-1.216 8.189-1.898 3.493-0.627 6.976-1.307 10.448-2.036 7.138-1.5 14.231-3.215 21.266-5.142 14.498-3.97 30.267-8.229 43.695-14.943 6.96-4.19 14.65-7.13 21.2-12.02 1.74-1.58 2.54-4.81 0.59-6.54-4.2-4.56-10.8-5.16-16.61-5.28-12.33-1.01-24.75-0.54-37 1.07-23.4 2.38-46.8 4.95-69.96 9.13-13.13 2.02-26.27 3.88-39.39 5.95 5.2-4.22 11.02-7.59 16.96-10.64 8.56-2.77 16.68-6.72 25.08-9.9 6.504-0.535 12.414-3.44 18.422-5.735 6.241-2.383 12.563-4.363 18.737-6.987 20.813-8.845 40.371-19.94 57.78-34.448 1.91-1.52 3.16-3.64 4.44-5.69-3.94-3.1-9.03-4.29-13.93-3.22-10.96 2.33-22.29 2.48-33.12 5.46-12.321 3.331-24.818 5.654-37.149 8.886-16.618 4.474-33.223 9.056-49.841 13.414-6.72 1.62-13.32 3.67-19.95 5.57-12.76 3.76-26.25 2.69-39.24 5.05-8.85 1.91-17.45 4.76-26.08 7.44-13.94 4.5-28.03 8.53-41.89 13.26-7.76 2.4-15.29 5.48-23.1 7.69-11 2.69-21.85 5.96-32.57 9.59-11.14 3.12-21.83 7.58-32.61 11.72-7.58 3.23-16.31 5.56-21.21 12.76 0.02-1.13-3.01-1.84-3.63-1.79 6.13-6.39 14.37-11.73 17-20.67-1.75-3.24-5.25-5-8.56-6.23-8.09-2.86-16.89-3.01-25.25-1.43-6.595-8e-3 -13.509 1.821-19.668 4.082-7.082 2.601-14.206 6.844-20.858 10.459-7.567 4.112-14.909 8.622-22.245 13.129-3.915 2.405-7.83 4.81-11.746 7.214-6.034 3.706-12.311 7.596-16.717 13.263-2.377 3.056-3.997 5.78-6.875 8.468-3.239 3.026-6.679 5.834-9.791 8.996-6.81 6.84-14.29 13.1-20.12 20.86-6.45 6.71-11.91 14.26-17.52 21.66-12.06 16.21-24.13 32.42-36.24 48.59-5.74 8.14-12.94 15.09-19.43 22.61-3.94 4.72-8.63 8.73-12.69 13.33-9.01 9.28-17.32 19.26-26.99 27.89-6.11 5.4-13.03 10.53-21.28 11.85-13.81 2.24-27.84 1.32-41.76 1.41-4.75-0.08-9.62 0.25-14.26-0.89-2.47-1.87-4.49-4.24-6.78-6.3-14.13-12.83-30.55-23.93-49.33-28.43-7.453-1.513-16.017-0.377-23.66-0.705-6.596-0.283-13.184-0.74-19.756-1.371-2.889-0.277-5.586-0.605-8.373-1.413-2.734-0.793-5.971-2.55-8.85-2.55-3.82-0.69-6.45-3.86-8.95-6.54-5.7-6.15-5.87-15.16-5.72-23.05-0.29-3.25 1.98-5.77 3.28-8.52 4.47-9.12 6.18-19.25 8.1-29.14 1.19 0.17 2.38 0.34 3.59 0.5 3.33-6.09 5.45-12.69 8.27-19 1.23-2.96 1.06-6.23 0.57-9.33-0.79-5.95 0.43-12.3-1.95-17.96-2.02-0.4-2.97 1.3-3.98 2.64 0.75-12.03 2.34-24.21 0.27-36.21-1.8-11.56-7.85-22.19-16.02-30.45-10.75-10.51-25.59-16.18-40.49-16.87-8.49 0.49-17.07 1.94-24.83 5.55-13.87 5.98-24.71 17.96-30.05 32-5.39 14.36-3.04 29.9-3.63 44.84-0.4-1.18-0.79-2.36-1.17-3.53-0.97-0.12-1.93-0.24-2.88-0.35-0.97 4.57-2 9.17-1.97 13.88 0.17 3.37-1.31 6.6-0.83 9.98 0.2 3.39 2.29 6.24 3.12 9.48 1.22 4.53 3.09 8.86 5.28 13 2.15 1 2.71-1.05 3.4-2.59 1.84 11.1 2.76 22.67 7.81 32.91 2.65 4.62 1.45 10.13 1.33 15.18-0.5 8.48-5.19 16.77-12.68 20.92-5.93 1.12-11.71 3.21-17.8 3.33-7.652 0.151-15.223-0.987-22.883-1.255-10.261-0.359-20.519-0.385-30.297 2.765-19.49 6.33-36.03 19.11-50.86 32.9-12.02 0.36-24.04-0.21-36.06-0.39-10.13-0.78-20.75-0.61-30.16-4.95-10.27-5.63-18.27-14.46-25.99-23.07-13.73-15.91-28.41-30.97-41.47-47.45-7.4-10.35-14.7-20.76-22.03-31.15-13.66-19.21-26.58-39.07-42.46-56.55-7.661-8.433-16.282-15.946-23.638-24.757-3.154-3.777-6.202-7.675-9.779-11.07-3.892-3.694-8.68-5.453-12.759-8.76-4.026-3.265-8.217-6.341-12.483-9.284-8.643-5.962-17.716-11.301-27.127-15.958-11.119-5.502-22.92-10.085-35.28-11.745-10.669-1.433-24.334-1.509-32.554 6.623 2.49 8.71 9.57 14.98 16.13 20.77 0.07 0.55-9.91-4.62-14.75-6.59-14.73-6.56-29.53-13.12-44.9-18.05-14.23-5.79-29.4-8.82-43.56-14.79-13.24-4.97-26.56-9.71-39.97-14.19-13.07-4.38-25.91-9.58-39.34-12.78-8.96-1.62-18.06-2.3-27.09-3.48-9.09-1.35-17.6-4.95-26.37-7.51-6.63-1.93-13.23-3.91-19.81-6-13-4.56-26.36-7.96-39.52-12-16.285-4.367-32.593-8.904-49.085-12.432-5.586-1.195-11.209-2.285-16.9-2.843-5.075-0.498-10.762-1.57-14.825 2.086-0.46 2.48 1.73 4.39 3.28 6.01 3.605 3.767 8.558 6.846 12.656 10.082 20.131 15.896 43.93 26.702 67.769 35.682 2.284 0.86 4.57 1.714 6.856 2.571 8.819 3.306 17.636 6.641 26.238 10.484 4.356 1.946 8.657 4.021 12.859 6.281 3.984 2.143 7.266 4.749 10.932 7.37-6.35-0.3-12.48-2.11-18.74-3.08-13.157-2.039-26.143-5.017-39.234-7.421-13.46-2.472-26.996-4.535-40.582-6.182-0.408-0.049-0.815-0.098-1.223-0.147 0.624 0.011 1.248 0.022 1.872 0.032-5.044 0-10.676-1.227-15.661-2.032-5.056-0.816-10.153-1.616-15.301-1.699-7.65-0.57-15.34-0.79-23.01-0.49-5.14 0.42-11.04 1.3-14.4 5.67-0.91 2.1-0.22 4.88 1.72 6.19 6.38 4.88 13.85 7.98 20.58 12.32 2.651 1.354 4.951 2.653 7.717 3.755 3.06 1.219 6.133 2.403 9.219 3.556 6.17 2.306 12.39 4.481 18.652 6.525 12.524 4.088 25.221 7.648 38.044 10.668 14.004 3.298 27.755 6.14 41.099 11.726 8.51 3.69 16.16 9.79 25.51 11.22-13.69 0.29-27.4-0.17-41.08-0.82-30.35-0.21-61.24-1.26-90.88 6.41-6.91 1.35-13.74 4.26-18.6 9.48-2.47 2.37-1.39 6.89 1.47 8.48 7.13 4.479 14.929 7.868 22.993 10.266 8 2.379 16.324 3.5 24.437 5.203 6.092 1.278 12.275 2.081 18.474 2.616 10.882 0.941 21.911 0.768 32.86 1.385 6.286 0.354 12.575 0.673 18.846 1.247 5.503 0.504 11.758 0.631 16.958 2.441 11.737 4.085 23.904 7.092 36.301 8.203 13.551 1.214 27.398 0.124 40.328-4.11-0.679 0.222-1.616 1.518-2.259 1.964-1.005 0.696-2.104 1.257-3.255 1.669-2.141 0.767-4.428 0.806-6.624 1.282-5.568 1.207-11.298 1.617-16.889 2.733-10.05 1.74-20.26 2.34-30.28 4.25-9.33 1.12-18.67 2.29-27.87 4.18-12.32 2.531-24.623 5.217-36.7 8.75-11.89 3.478-24.707 7.471-35.404 13.865-4.44 2.654-8.243 6.91-10.236 11.685-1.94 3.69-1.59 8.35 0.73 11.79 1.917 3.668 5.811 5.338 9.422 6.884 4.405 1.886 8.447 3.139 13.24 3.836 11.32 1.647 22.873 1.689 34.204 0.111 11.983-1.669 23.644-5.12 35.552-7.257 10.381-1.863 21.195-2.726 31.585-0.45 2.183 0.478 4.207 1.511 6.386 1.791 2.666 0.342 5.406 0.247 8.078 0.03 5.433-0.442 10.771-1.608 16.174-2.284 12-1.11 29.97-3.69 35.71-4.05-10.46 4.85-21.47 8.3-32.2 12.45-9.12 3.74-18.54 6.72-27.55 10.75-8.22 3.73-16.36 7.65-24.61 11.3-8.4 3.85-16.1 9-23.94 13.85-5.54 3.73-11.17 7.42-16.02 12.05-4.22 3.83-6.82 9.2-7.99 14.72-3.237 15.275 18.547 15.689 28.339 14.491 5.35-0.655 10.411-2.494 15.685-3.538 6.085-1.205 11.958-3.207 17.486-6.104 5.46-2.86 11.66-3.94 16.99-7.07 6.26-3.53 13.35-5.09 19.94-7.82 2.94-1.11 5.83-2.83 9.09-2.56 4.75-0.23 9.42 1.44 14.17 0.61 7.03-1.33 13.38-4.75 20.11-7.01 10.87-3.61 19.77-11.08 29.4-16.98-1.635 1.002-3.814 7.379-2.702 9.024-1.096-1.555-24.014 12.475-26.27 13.728-6.108 3.215-12.082 6.717-18.115 10.071-7.195 4-14.958 7.247-21.861 11.665-3.829 2.451-7.579 5.026-11.241 7.721-6.654 4.897-13.188 10.408-18.517 16.868-2.777 3.366-5.394 6.782-6.928 10.883-1.539 4.115-4.034 7.996-3.335 12.621 0.629 4.158 3.705 7.557 7.146 9.975 4.647 3.267 10.39 7.073 16.063 8.015 4.094 0.679 7.03-1.901 10.798-2.681 3.839-0.794 7.82-0.437 11.656-1.268 3.019-0.654 5.801-2.031 8.583-3.326 2.608-1.214 5.588-3.168 8.576-2.946-4.551 5.317-9.824 10.608-13.593 16.512-2.026 3.174-3.593 6.607-4.979 10.101-1.528 3.854-2.509 6.984-2.724 11.155-0.102 1.982-0.121 4.001 0.417 5.911 1.415 5.028 7.46 7.377 11.736 9.433 5.2 2.5 10.81 4.28 16.58 4.77 4.72-0.43 8.57-3.44 12.64-5.58 3.15-0.62 6.36-0.92 9.53-1.5-2.26 3.94-4.17 8.08-6.72 11.84-1.621 4.846-3.818 10.055-4.221 15.167-0.646 8.209-0.26 17.749 4.988 24.54 5.13 6.638 12.13 8.525 20.107 8.826-1.289 0.212 4.641 0.428 8.318-1.656s6.745-5.085 9.598-8.203c3.06-3.344 5.936-6.869 9.251-9.959 3.316-3.091 7.14-5.767 11.491-7.035-0.803 0.234-2.114 2.74-2.611 3.436-0.905 1.269-1.769 2.567-2.591 3.891-1.644 2.649-3.117 5.403-4.41 8.239-4.363 9.572-6.459 19.969-5.642 30.485 0.243 3.12 1.745 6.183 2.692 9.136 0.984 3.068 1.875 6.538 4.591 8.571 3.686 2.759 10.352 4.765 14.987 4.563 5.49-0.24 11.42-1.07 15.62-4.97-1.86 4.48-2.88 9.21-3.93 13.92-0.313 2.745 0.134 5.478 0.514 8.192 0.429 3.058 0.92 4.506 2.892 6.994 0.881 1.112 1.841 2.201 3.067 2.916s2.77 1.009 4.081 0.465c-0.392 1.827 0.715 3.713 2.236 4.799 1.706 1.217 3.814 1.826 5.843 1.737 0.603-0.026 6.926-1.131 6.957-0.983 0.42 1.96 0.87 3.93 1.35 5.89 0.85 0.84 1.7 1.7 2.55 2.57 0.61-0.15 1.81-0.44 2.42-0.59 0.01 0.83 0.03 2.5 0.04 3.33 1.29-0.07 2.58-0.14 3.88-0.19 3.42-2.86 7.66-3.91 11.93-4.7-1.2 4.46-0.85 9.11-1.28 13.68-0.37 3.03 0.07 6.1 0.67 9.09 0.7 2.73 3.4 4.16 5.58 5.63 0.43 0.81 0.87 1.64 1.31 2.48 0.83-0.02 2.48-0.04 3.31-0.06 2.25-1.86 4.47-3.86 7.2-5.01 0.27 0.27 0.82 0.81 1.09 1.08-0.67 7.46-1.14 15.16 1.09 22.42 0.69 2.1 2.88 2.98 4.96 2.89 0.07 0.67 0.2 2.02 0.27 2.7 1.07-0.05 2.15-0.1 3.23-0.13 1.67-1.52 3.32-3.06 4.99-4.58 2.13-0.47 4.12-1.37 5.97-2.53 0.08 9.58-1.56 19.67 2.34 28.75 1.06 2.03 3.56 1.8 5.47 1.46 0.03 0.65 0.11 1.95 0.14 2.61 2.73-0.16 5.12-1.32 6.82-3.46 0.11 6.35 0.76 12.68 3.24 18.6 1.08 0.55 2.16 1.12 3.24 1.7 0.54-0.38 1.63-1.14 2.18-1.52 0.11 0.89 0.33 2.66 0.44 3.55 4.53-1.3 7.31-5.2 10.83-8.02 0.32 10.23-1.19 20.95 2.93 30.65 1.87 0.87 3.78 1.67 5.72 2.4 0.54 2.45 3.73 1.75 4.96 0.26 2.27-2.26 4.03-5.15 7.08-6.46 0.84 2.58 1.73 5.14 2.58 7.72 1.71 0.76 3.55 1.07 5.42 1.14 0.12 0.54 0.35 1.6 0.46 2.13 1.16-0.49 2.33-0.96 3.5-1.41 2.11-2.51 3.49-6.37 7.34-6.36-0.15 6.11 0.85 12.14 1.58 18.19 0.71 3.28 2.27 6.31 3.62 9.38 1.3 0.43 2.6 0.87 3.91 1.31 0.39-0.57 1.18-1.72 1.57-2.29 0.24 1.15 0.49 2.32 0.75 3.5 2.46-1.28 4.75-2.89 6.38-5.19-0.24 4.41 2.04 8.27 3.9 12.09 1.45 2.82 4.8 5.91 8.14 4.11 0.52 1.3 1.05 2.61 1.59 3.93 0.22-0.34 0.67-1.01 0.89-1.34 1.04-0.11 2.09-0.21 3.14-0.29 1.32-1.45 2.68-2.86 4.04-4.25 0.91 6.05 1.64 12.46 5.39 17.54 2.13 2.43 4.92 4.23 7.92 5.43 0.5 0.82 1 1.66 1.5 2.5 1.56 0.08 3.13 0.15 4.7 0.24 2.81-2.98 5.4-6.17 8.61-8.72 1.77 8.04 3.22 16.66 8.52 23.27 2.15 2.92 6.96 0.7 8.49 4.27 1.32-0.43 2.64-0.86 3.97-1.29 1.44-2.29 2.81-4.63 4.11-7.01 1.23 3.48 2.28 7.01 3.29 10.57 2.08 5.04 5.25 10.05 10.68 11.9 0.66-0.61 1.33-1.21 2-1.8 0.57 1.11 1.14 2.27 1.8 3.37 1.46-0.33 2.87-0.8 4.32-1.18 3.39-4.32 6.92-8.61 9.62-13.4 1.11-0.58 2.24-1.14 3.37-1.7 0.46 1.15 0.94 2.32 1.42 3.49 1.49-0.57 3.05-0.96 4.62-1.28 3.43-4.21 7.58-7.84 10.45-12.49 5.31-7.95 9.72-16.55 12.6-25.67 1.17-3.66 0.65-8.24 3.68-11.05 6.83-6.5 12.09-14.51 16.27-22.92 2.14-4.07 2.25-8.95 5-12.74 2.86-3.95 2.79-9.34 6.18-12.95 3.23-4.01 5.99-8.44 7.74-13.3 1.66-4.9 6.36-8.6 6.15-14.11-0.18-2.88 2.8-4.4 3.58-6.94 1.19-3.88 3.42-7.31 4.83-11.09 3.93-10.19 7.24-20.6 10.36-31.05 2.03-8.69 5.98-16.72 10.37-24.43 0.08 7.92-0.61 15.88 0.99 23.71 4.53-1.72 7.47-5.7 10.27-9.44 2.41-3.63 6.86-5.08 9.54-8.45 2.11-2.7 3.43-5.89 4.83-8.98 0.05 4.15 0.31 8.29 0.5 12.44 4.42-0.96 8.3-3.55 11.37-6.81 2.59-2.95 3.43-7 6.01-9.96 2.08-2.42 4.16-4.94 5.07-8.07 1.78-5.39 5.64-9.74 7.63-15.02 1.72-4.23 4.41-7.98 5.93-12.3 3.96-9.96 8.47-19.74 11.54-30.01 0.24 0.5 0.71 1.51 0.95 2.021 3.025 12.911 5.229 25.997 8.108 38.939 3.493 15.703 6.441 31.973 4.503 48.082-1.93 16.044-6.866 30.533-12.112 45.681-4.44 12.821-7.833 26.61-10.369 39.968-0.06 0.65-11.45 43.82-12.6 47.63-3.93 15.18-8.01 30.4-10.06 45.99-2.03 14.91-1.74 30-1.14 45 1.36 25.06 3.28 50.09 5.45 75.09 2.17 23.65 3.35 47.42 6.64 70.95 1.53 12.52 2.62 25.1 4.26 37.61l1.95 14.36c0.18 10.06 5.23 19.14 6.84 28.94 1.95 11.11 6.37 21.55 10.6 31.93 9.13 22.14 23.3 41.62 36.96 61.1 6.41 9.07 11.04 19.23 15.55 29.33 1.95 4 1.76 8.6 3.36 12.73 1.25 4.23 3.64 7.97 5.26 12.06 0.45 3.62-0.06 7.29-0.21 10.93-0.67 6.98-0.35 13.99-0.41 20.98-0.07 5.84 0.56 11.7 2.04 17.36 1.91 7.39 2.08 15.17 4.43 22.46 1.73 2.89 4.45 5.89 8.11 5.87 1.17 2.54 2.84 4.79 4.73 6.86 1.81-0.02 3.64-0.06 5.47-0.14 0.48 3.08-0.07 7.17 2.96 9.1 2.22 1.75 5.41 1.37 7.65-0.17 0.52 1.28 0.97 2.64 1.72 3.87 2.68 2.15 6.62 1.79 9.48 0.16 0.2-0.87 0.4-1.73 0.62-2.57 1.18 3 1.86 6.63 4.6 8.68 3.3 2.11 7.41 1.23 11.04 0.73-3.31 14.05-3.1 29.09 2.5 42.54 1.53 9.3 1.21 18.87 1.4 28.29 0.25 10.03-1.6 20.01-0.77 30.04 1.15 7.96 3.46 15.85 3 23.99-0.51 4.59 1.33 8.89 2.71 13.17 1.16 4.17 3.59 8.15 7.54 10.2 4.02 1.16 8.77 0.29 12-2.42 2.08-1.73 1.75-4.61 1.91-7.02 1.49 2.58 3.71 5.55 7.15 4.79 3.75-0.18 5.17-3.97 5.43-7.17 2.62 1.07 5.85 0.78 7.78-1.47 2.03-2.04 0.56-5.01 0.29-7.43 1.91-0.26 4.24 0.04 5.63-1.63 1.39-1.79 1.57-4.15 2.24-6.23 2.14-0.09 4.9-0.29 5.35-2.91 2.75-9.49-0.79-19.23-1.2-28.82-0.3-11.65-4.53-22.61-7.71-33.68-2.72-9.4-6.29-18.52-9.18-27.86-1.99-6.74-4.52-13.43-4.63-20.55-1.47-5.91 3.44-11.11 2.07-17.07-3.13-22.21 2.57-44.23 5.96-66.04 4.36-23.74 10.91-47.04 14.72-70.89 4.58-24.04 5.66-48.66 3.91-73.04-0.41-13.02-3.15-25.87-3.16-38.91-0.21-7.04 0.12-14.1-0.33-21.13l1.26-16.86c2.07-11.89 4.94-23.64 8.65-35.12 9.81-45.4 19.54-90.87 26.34-136.84 3.55-23.77 4.25-47.96 1.52-71.85 0 0-0.79-7.42-1.24-11.17-0.93-6.32-1.53-12.73-3.51-18.82l-8.99-43.26c-2.924-13.116-6.807-26.057-10.793-38.883-4.475-14.399-10.436-28.212-12.024-43.342-1.631-15.534 1.089-31.026 5.771-45.834 2.005-6.342 3.387-12.901 4.917-19.373 0.833-3.521 1.656-7.045 2.481-10.568 0.462-1.974 2.79-7.318 2.169-9.201 4.04 12.25 8.1 24.57 13.78 36.17 1.89 5.91 5.9 10.87 7.61 16.86 1.27 4.64 5.49 7.64 7.05 12.15 2.13 6.17 7.64 10.4 13.48 12.87 1.03-4.26 1.07-8.69 2.07-12.95 1.34 5.09 3.7 10.15 8.19 13.21 5.89 3.95 7.58 13.04 15.11 14.61 0.81-7.74 0.66-15.5 0.77-23.26 8.35 9.73 8.85 23.23 12.79 34.93 3.12 11.64 6.94 23.13 11.84 34.12 1.13 1.66 2.5 3.33 2.28 5.51-0.06 3.3 1.68 6.18 3.33 8.91 2.36 3.71 3.04 8.18 5.36 11.92 1.72 3.44 4.26 6.36 6.23 9.65 1.37 3.28 1.89 6.91 3.82 9.97 2.61 4.03 2.62 9.03 4.75 13.28 2.62 6.06 6.08 11.73 9.98 17.07 1.79 2.31 3.46 4.83 6 6.42 1.76 3.46 1.95 7.39 2.71 11.14 4.31 14.35 11.53 27.92 21.94 38.78 1.43 0.18 2.87 0.38 4.33 0.59 0.2-0.73 0.6-2.2 0.8-2.93 1.12 0.58 2.34 1.06 3.37 1.85 2.71 4.61 5.92 8.92 8.71 13.49 0.62 0.15 1.86 0.45 2.49 0.6 1.99 1.92 2.98-0.62 3.5-2.34 1.08 0.53 2.17 1.63 3.48 0.96 5.05-1.18 6.93-6.47 9.66-10.26 0.7-3.6 2.06-7.02 3.22-10.49 1.96 1.87 3.13 4.37 4.44 6.72 1.4 0.43 2.81 0.88 4.25 1.34 0.21-0.56 0.63-1.67 0.84-2.23 2.55 0.12 5.55 0.09 7.32-2.1 5.15-6.46 6.86-14.79 8.7-22.65 3.47 2.37 5.68 5.98 8.49 9.03 1.54-0.1 3.09-0.18 4.66-0.26 0.48-0.83 0.98-1.65 1.5-2.45 2.8-1.03 5.41-2.63 7.53-4.75 1.79-2.15 2.71-4.86 4.05-7.29 0.4-3.7 1.53-7.24 2.52-10.81 1.43 3.37 4.32 5.83 8.15 5.67 0.2-0.71 0.59-2.14 0.78-2.86 0.8 0.28 1.62 0.57 2.46 0.88 5.42-1.75 6.85-7.49 9.4-11.9 0.09-1.44 0.21-2.87 0.34-4.29 2.08 1.66 4.18 3.29 6.32 4.91 0.24-1.19 0.5-2.37 0.77-3.54 0.61 0.81 1.25 1.63 1.91 2.46 1.11-0.45 2.24-0.88 3.39-1.28 5.23-8.42 5.25-18.65 6.39-28.19 3.29 1.4 5 4.56 6.83 7.42 1.22 0.41 2.46 0.83 3.71 1.26 0.1-0.56 0.29-1.67 0.38-2.23 1.53-0.01 3.09-0.03 4.65-0.07 1.32-2.82 2.48-5.71 3.62-8.6 2.47 2.08 4.37 4.71 6.46 7.16 1.26 1.31 4.18 2.28 4.73-0.22 2.41-0.84 5.79-1.32 6.59-4.22 1.76-3.99 1.92-8.35 2.27-12.63 0.8-5.26 0.42-10.58 0.67-15.87 3.66 2.59 5.96 7.16 10.69 8.05 0.13-0.83 0.39-2.5 0.52-3.33 0.67 0.65 1.35 1.31 2.06 1.98 1.13-0.84 2.3-1.65 3.47-2.47 2.16-5.69 3.34-11.65 3.35-17.73l2.63 2.63c1.33 0.24 2.68 0.49 4.05 0.76 0.11-0.78 0.33-2.33 0.44-3.11 0.67 0.63 1.37 1.26 2.08 1.91 1.09-0.89 2.23-1.74 3.37-2.6 3.33-9.09 2.92-18.94 2.93-28.46 1.99 1.1 4.14 1.99 6.14 3.12 2.19 1.58 3.74 4.92 6.99 3.96 0.33-0.51 0.99-1.53 1.32-2.04 1.77-0.13 3.53-0.85 4.49-2.44 2.9-7.39 1.96-15.43 1.71-23.17 2.84-0.26 4.96 1.53 6.87 3.4 1.56 1.79 5.34 1.94 6.04-0.74 2.15-1.74 5.13-3.18 5.73-6.15 1.68-7.31 0.95-14.92 0.03-22.28 0.013 0.102 7.248 2.201 7.997 2.614 2.416 1.333 4.417 2.887 7.36 2.638-0.016-1.068-0.033-2.136-0.049-3.204 0.016 1.062 3.496 0.186 3.907-0.068 1.031-0.637 1.524-1.759 1.927-2.857 0.972-2.643 0.711-5.603 1.073-8.352 3.407 0.884 6.907 1.775 10.404 1.379s7.043-2.37 8.277-5.666c0.085-0.226 3.851-1.534 4.393-1.929 1.544-1.125 2.798-2.636 3.625-4.357 1.855-3.86 2.371-8.283 2.115-12.519-0.89-3.63-1.45-7.34-2.46-10.94 4.92 1.82 10.13 3.48 15.45 3.01 4.305-0.753 13.191-2.285 15.373-6.574 0.935-1.837 1.056-3.963 1.461-5.984 0.557-2.778 2.084-4.858 3.013-7.43 0.998-2.765 0.915-6.329 0.805-9.224-0.49-12.891-4.975-25.602-12.683-35.947 1.277 1.642 4.511 2.495 6.235 3.816 2.359 1.807 4.345 4.122 6.345 6.303 5.36 5.37 9.13 12.38 15.79 16.37 6.27 0.55 12.87 0.83 18.62-2.21 2.193-1.159 5.079-1.958 6.882-3.635 2.078-1.933 3.301-5.449 4.108-8.085 2.217-7.24 3.142-14.073 1.95-21.529-0.616-3.853-1.65-8.012-3.198-11.752-1.379-3.333-3.314-8.294-5.982-10.788 2.87 0.15 5.81 0.24 8.58 1.19 2.647 0.908 4.92 3.263 7.482 4.455 3.106 1.445 5.296 1.455 8.671 0.9 6.69-1.1 13.156-3.562 18.871-7.212 1.666-1.064 3.309-2.269 4.37-3.937 2.357-3.706 1.13-8.444 0.766-12.468-0.436-4.811-2.106-9.327-4.422-13.573-1.894-3.473-4.181-6.709-6.582-9.846-1.139-1.488-2.269-3.017-3.502-4.431-0.824-0.945-1.686-1.993-2.31-3.038-0.228-0.382 6.411 1.702 6.728 1.826 2.74 1.079 5.515 2.07 8.319 2.969 3.633 1.164 7.316 2.174 11.035 3.027 3.034 0.695 6.797 2.354 9.883 2.237 4.43-0.82 8.56-2.83 12.421-5.121 3.77-2.236 9.11-5.009 10.798-9.312 1.615-4.118-0.862-6.589-0.908-10.554-0.054-4.635-2.433-8.69-4.979-12.528-2.341-3.529-5.363-6.567-8.256-9.636-4.796-5.088-10.321-9.416-15.81-13.721-2.827-2.217-5.591-4.575-8.487-6.696-2.059-1.508-4.424-2.378-6.666-3.652-3.351-1.903-6.692-3.824-10.023-5.763-6.486-3.776-12.933-7.618-19.339-11.528-6.299-3.844-12.627-7.699-18.847-11.651-4.395-2.792-7.851-8.261-10.104-12.98 6.39 4.56 12.45 9.62 19.28 13.55 4.84 3.23 10.52 4.79 15.73 7.31 4.53 2.11 9.19 4.23 14.23 4.73 5.63 0.99 11.63-1.81 17.03 0.87 5.73 2.75 11.73 4.86 17.6 7.3 8.769 3.522 16.798 8.811 25.582 12.474 7.934 3.309 16.081 5.471 24.365 7.782 3.09 0.862 5.569 2.844 8.756 2.652 2.766-0.167 5.445-0.949 8.185-1.288 4.069-0.505 8.247-1.056 11.762-3.34 2.74-2.68 4.63-6.57 3.95-10.47-1.14-5.96-3.78-11.8-8.32-15.93-6.79-6.38-14.5-11.68-22.22-16.85-5.53-3.87-11.33-7.39-17.38-10.37-11.89-5.85-23.44-12.42-35.78-17.29-16.14-7.12-32.78-13.18-48.57-21.06 6.97 2.54 28.17 6.05 39.95 7.48 6.02 0.82 11.88 2.6 17.97 3.08 7.9 1.27 15.21-3.49 23.05-3.16 8.193 1.605 16.276 2.486 24.457 4.412 8.62 2.029 17.201 4.239 25.891 5.96 17.001 3.366 38.159 6.237 54.051-2.652 5.69-2.06 9.35-8.64 7.95-14.56-1.75-6.23-5.96-11.67-11.54-14.91-9.74-5.71-20.3-9.76-30.74-13.95-11.9-3.96-24.21-6.52-36.29-9.84-13.949-3.834-28.251-4.971-42.478-7.604-15.121-2.798-30.076-6.498-44.756-11.078 15.477 6.355 32.93 5.71 49.463 3.146s32.84-6.945 49.552-7.757c10.667-0.518 21.352 0.429 32.031 0.334 9.574-0.085 19.12-1.008 28.599-2.32 4.85-0.671 9.685-1.447 14.512-2.264 3.958-0.67 8.988-0.749 12.601-2.446 3.609-1.695 7.556-3.342 11.427-4.342 3.75-1.45 7.52-3.06 10.84-5.39 1.95-1.22 2.24-3.67 3.05-5.64-2.55-3.26-5.48-6.3-9.1-8.36-5.22-3.1-11.29-4.15-17.05-5.82-14.54-3.95-29.6-5.56-44.61-6.28-25.5-2.12-51.11-0.73-76.62-2.11 9.95-2.502 18.496-8.436 28.113-11.772 8.53-2.96 17.164-4.66 25.83-6.56zm-796.2 1146.2c-0.75-4.8-1.23-9.64-1.67-14.46 0.45 0.24 1.36 0.73 1.81 0.98 1.16 4.44 1.49 9.08-0.14 13.48zm19-18.21c-1.98-4.46-1-9.43-1.86-14.1-1.47-8.99-6.31-16.88-9.83-25.14-2.71-6.66-6.61-13.3-5.89-20.76 0.83-10.25-0.14-20.55-2.28-30.58-1.79-10.12-4.16-20.71-10.86-28.82-1.67-2.27-4.18-3.64-6.67-4.78-3.03-18.04-5.26-36.22-6.72-54.44-1.77-10.17-2.27-20.68-5.99-30.4-3.38-12-10.66-22.33-17.16-32.79 0.21-1.78 0.43-3.53 0.64-5.28l2.62-23.88-0.01 0.05c0.19-0.69 0.28-1.42 0.24-2.16 0.14-8.07 1.88-16.05 1.35-24.13 0.44-2.34 1.28-4.6 1.55-6.96 2.66-26.24 8.01-52.09 12.86-77.97 3.56-21.59 9.05-42.91 10.33-64.82 0.24-7.7 1.37-15.41 0.27-23.09-0.85-4.63 2.19-8.58 3.84-12.66 4.71 1.26 9.65 1.36 14.44 0.41 0 0.31 0.08 0.65 0.25 1.01 0.45 0.93 0.79 1.85 1.05 2.8-0.02 0.7-0.07 1.41-0.19 2.1-0.02 0.12-0.02 0.23-0.02 0.34-0.04 0.04-0.08 0.07-0.11 0.11-2.66 10.08-2.46 20.56-3.14 30.89-0.48 28.43 3.17 56.69 5.09 85.02 2.05 22.6 2.73 45.3 2.52 67.99 0.26 7.04-0.13 14.12 0.55 21.13l3.66 27c-0.15 0.56-0.18 1.16 0 1.81 1.47 10.06 4.56 19.87 5.31 30.04 0.31 13.53-3.05 26.74-4.53 40.12-3.54 25.27-0.39 50.79 2.26 75.98 3.44 24.82 5.08 49.83 6.7 74.82 0.1 7.04 0.62 14.13-0.27 21.14z"/>
</svg>
